<svg xmlns="http://www.w3.org/2000/svg" version="1.1" xmlns:xlink="http://www.w3.org/1999/xlink" xmlns:svgjs="http://svgjs.dev/svgjs" width="40" height="180" viewBox="0 0 2000 848"><g transform="matrix(1,0,0,1,-1.2121212121212466,0.1440034975519211)"><svg viewBox="0 0 396 168" data-background-color="#ffffff" preserveAspectRatio="xMidYMid meet" height="848" width="2000" xmlns="http://www.w3.org/2000/svg" xmlns:xlink="http://www.w3.org/1999/xlink"><g id="tight-bounds" transform="matrix(1,0,0,1,0.2400000000000091,-0.028528994798023177)"><svg viewBox="0 0 395.52 168.05705798959605" height="168.05705798959605" width="395.52"><g><svg viewBox="0 0 395.52 168.05705798959605" height="168.05705798959605" width="395.52"><g><svg viewBox="0 0 395.52 168.05705798959605" height="168.05705798959605" width="395.52"><g><svg viewBox="0 0 395.52 168.05705798959605" height="168.05705798959605" width="395.52"><g transform="matrix(1,0,0,1,0,125.0748777759663)"><svg viewBox="0 0 395.52 42.98218021362974" height="42.98218021362974" width="395.52"><g id="textblocktransform"><svg viewBox="0 0 395.52 42.98218021362974" height="42.98218021362974" width="395.52" id="textblock"><g><svg viewBox="0 0 395.52 42.98218021362974" height="42.98218021362974" width="395.52"><g transform="matrix(1,0,0,1,0,0)"><svg width="395.52" viewBox="2.81 -36.04 331.5621717214584 36.04" height="42.98218021362974" data-palette-color="#f3826e"><g transform="matrix(1,0,0,1,0,0)"><g><svg width="13.60811448097229" viewBox="3.16 -36.36 62.8 36.36" height="7.87939453125" data-palette-color="#f3826e" id="scriptelement" x="320.7640572404861" y="-7.87939453125"><path d="M10.85 0L3.16 0 3.16-36.36 17.51-36.36Q21.64-36.36 24.56-34.79 27.47-33.22 29-30.44 30.54-27.66 30.54-24.04L30.54-24.04Q30.54-20.42 28.98-17.65 27.41-14.88 24.46-13.33 21.5-11.79 17.31-11.79L17.31-11.79 8.17-11.79 8.17-17.95 16.07-17.95Q18.29-17.95 19.74-18.72 21.18-19.5 21.9-20.87 22.62-22.25 22.62-24.04L22.62-24.04Q22.62-25.85 21.9-27.21 21.18-28.57 19.73-29.32 18.27-30.08 16.03-30.08L16.03-30.08 10.85-30.08 10.85 0ZM58.31-36.36L65.96-36.36 65.96 0 59.32 0 43.5-22.89 43.23-22.89 43.23 0 35.54 0 35.54-36.36 42.29-36.36 57.99-13.49 58.31-13.49 58.31-36.36Z" opacity="1" transform="matrix(1,0,0,1,0,0)" fill="#f3826e" class="undefined-123" data-fill-palette-color="primary" id="lv-123"></path></svg></g></g><path d="M13.6-32.4L13.6-6.47 22.85-6.47 22.85 0 9.28 0 2.81-6.47 2.81-25.93 9.28-32.4 13.6-32.4ZM19.31-11.55L19.31-17.97 34.13-17.97 34.13 0 24.56 0 24.56-11.55 19.31-11.55ZM23.34-25.93L15.31-25.93 15.31-32.4 28.47-32.4 34.13-25.93 34.13-22.68 23.34-22.68 23.34-25.93ZM67.94-19.46L67.94-6.47 61.47 0 54.25 0 54.25-6.05 56.93-6.05 56.93-19.46 54.25-19.46 54.25-25.93 61.47-25.93 67.94-19.46ZM49.73-19.46L49.73-6.05 52.54-6.05 52.54 0 45.29 0 38.82-6.47 38.82-19.46 45.29-25.93 52.54-25.93 52.54-19.46 49.73-19.46ZM88.42-6.47L88.42 0 78.85 0 72.8-6.05 72.8-35.82 83.59-35.82 83.59-6.47 88.42-6.47ZM91.2 0L91.2-25.93 102.02-25.93 102.02 0 91.2 0ZM91.2-29.15L91.2-36.04 102.02-36.04 102.02-29.15 91.2-29.15ZM124.23-13.16L124.23-19.46 119.64-19.46 119.64-22.29 123.26-25.93 129.8-25.93 135.05-19.87 135.05-13.16 124.23-13.16ZM117.91 0L107.12 0 107.12-25.93 117.91-25.93 117.91 0ZM176.45 0L164.12 0 164.12-6.47 172.13-6.47 172.13-25.93 164.12-25.93 164.12-32.4 176.45-32.4 182.94-25.93 182.94-6.47 176.45 0ZM151.62 0L151.62-32.4 162.41-32.4 162.41 0 151.62 0ZM216.49-19.46L216.49-6.47 210.02 0 202.79 0 202.79-6.05 205.48-6.05 205.48-19.46 202.79-19.46 202.79-25.93 210.02-25.93 216.49-19.46ZM198.27-19.46L198.27-6.05 201.08-6.05 201.08 0 193.83 0 187.36-6.47 187.36-19.46 193.83-25.93 201.08-25.93 201.08-19.46 198.27-19.46ZM232.13-35.82L232.13 0 221.34 0 221.34-35.82 232.13-35.82ZM249.96-25.9L233.82-3.66 233.82-18.46 238.8-25.88 249.96-25.9ZM243.39-13.82L250.52 0 238.8 0 237.02-5.22 243.39-13.82ZM281.01 0L270.46 0 270.46-19.46 255.1-19.46 255.1-22.68 258.35-25.93 274.54-25.93 281.01-19.46 281.01 0ZM257.28-15.09L268.75-15.09 268.75-10.6 263.19-10.6 263.19-6.05 268.75-6.05 268.75-3.2 265.53 0 257.28 0 252.93-4.27 252.93-10.77 257.28-15.09ZM296.75 0L285.86 0 285.86-25.93 296.75-25.93 296.75 0ZM303.15 0L303.15-19.46 298.51-19.46 298.51-22.29 302.12-25.93 308.13-25.93 313.96-20.09 313.96 0 303.15 0Z" opacity="1" transform="matrix(1,0,0,1,0,0)" fill="#f3826e" class="wordmark-text-0" data-fill-palette-color="primary" id="text-0"></path></svg></g></svg></g></svg></g></svg></g><g transform="matrix(1,0,0,1,158.434546551533,0)"><svg viewBox="0 0 78.65090689693399 118.8027461104726" height="118.8027461104726" width="78.65090689693399"><g><svg xmlns="http://www.w3.org/2000/svg" xmlns:xlink="http://www.w3.org/1999/xlink" version="1.1" x="0" y="0" viewBox="24.761855407245655 5 59.58264309935908 90" enable-background="new 0 0 100 100" xml:space="preserve" width="78.65090689693399" height="118.8027461104726" class="icon-icon-0" data-fill-palette-color="accent" id="icon-0"><g fill="#ffffff" data-fill-palette-color="accent"><path d="M73.76 35.603C86.875 48 91.5 66.25 65.633 82.379c3.64-4.928 5.654-9.794 6.096-14.669 0.951-10.516-5.606-19.072-12.835-26.752C48.298 29.7 47.51 18.84 56.413 6.782 54.578 22.641 64.6 26.944 73.76 35.603zM45.288 93.716c6.184-13.053 7.276-20.302-8.197-34.939-4.204-3.977-7.451-8.029-9.71-12.086-2.881 6.435-5.164 20.081 3.244 27.935C36.312 79.938 44.125 83.125 45.288 93.716zM56.709 43.014C48.183 33.954 41.999 21.253 54 5 21.497 17.692 19.625 38.125 39.151 56.597 55.603 72.158 54.75 80.75 48 95 79.875 71.5 68.709 55.764 56.709 43.014z" fill="#ffffff" data-fill-palette-color="accent"></path></g></svg></g></svg></g><g></g></svg></g></svg></g></svg></g><defs></defs></svg><rect width="395.52" height="168.05705798959605" fill="none" stroke="none" visibility="hidden"></rect></g></svg></g></svg>